<?xml version="1.0" encoding="utf-8"?>
<!-- Generator: Adobe Illustrator 22.1.0, SVG Export Plug-In . SVG Version: 6.00 Build 0)  -->
<svg version="1.1" id="hr" xmlns="http://www.w3.org/2000/svg" xmlns:xlink="http://www.w3.org/1999/xlink" x="0px" y="0px"
	 viewBox="0 0 294 250" style="enable-background:new 0 0 294 250;" xml:space="preserve">
<style type="text/css">
	.st0{fill:#A8A7A7;}
	.st1{fill:#FBAF1C;}
	.st2{fill:#FFFFFF;}
	.st3{fill:none;stroke:#FFFFFF;stroke-width:14;stroke-linecap:round;stroke-miterlimit:5;}
	.st4{fill:#7C7C7C;}
	.st5{fill:none;stroke:#EF8800;stroke-width:2;stroke-miterlimit:1;}
	.st6{opacity:0.5;}
	.st7{fill:none;stroke:#000000;stroke-width:4;stroke-miterlimit:10;}
	.st8{fill:none;stroke:#FFFFFF;stroke-width:4;stroke-miterlimit:10;}
	.st9{fill:#FB3117; stroke-width:2;}
	.st10{fill:#E4C076;}
	.st11{fill:#CEAA6B;}
	.st12{fill:#F5DA95;}
	.st13{fill:#191918;}
	.st14{fill:#FA0F0C;}
	.st15{fill:#121211;}
	.st16{fill:#FDFEFA;}
	.st17{fill:#DB1408;}
	.st18{fill:#F9C57A;}
	.st19{fill:#C49A6C;}
	.st20{fill:#D8AB71;}
	.st21{fill:#F4F3F2;}
	.st22{fill:#F2E9E2;}
	.st23{fill:#FABF1F;}
	.st24{fill:#EFEFEF;}
	.st25{fill:#C4C4C4;}
	.st26{fill:#FF7F00;}
	.st27{fill:#F7F5F5;}
	.st28{fill:#3D3D3D;}
	.st29{fill:none;stroke:#000000;stroke-width:0.25;stroke-miterlimit:10;}
	.st30{fill:none;stroke:#000000;stroke-width:0.5;stroke-miterlimit:10;}


	.st6{
	animation: off 10s ease infinite;
	stroke-dasharray: 300;
	stroke-dashoffset: 0;
}

		@keyframes off{
		0%{
			stroke-dashoffset: 0;
		}
		50%{
			stroke-dashoffset: 300;
		}
		100%{
			stroke-dashoffset: 0;
		}
		}

	#large{
	animation: sca 5s ease infinite;
	transform-origin: 179.031px 71.214px;
}

		@keyframes sca{
		0%{
			transform: scale(1);
		}
		50%{
			transform: scale(1.1);
		}
		100%{
			transform: scale(1);
		}
		}
</style>
<g id="screen_2_">
	<path class="st0" d="M166.8,187.5c0,0-0.1,0-0.1,0c-0.2,0.1-0.4,0.1-0.7,0.2c-1.4,0.3-2.6,0.8-3.6,1.6c0,0,0,0-0.1,0
		c-0.7,0.6-1.4,1.3-2,2c-5.6,7.5-4.4,23.6-4.4,23.6h-18.4c0,0,1.2-16-4.3-23.6c-0.6-0.8-1.2-1.5-1.9-2c0,0,0,0-0.1,0
		c-0.9-0.8-2-1.3-3.3-1.6c-0.2-0.1-0.4-0.1-0.6-0.2c0,0-0.1,0-0.1,0C119.8,185.1,172.7,185.7,166.8,187.5z"/>
	<g>
		<path class="st1" d="M24.9,172V48.9c0-1.9,1.8-3.4,4-3.4h237.7c2.2,0,3.9,1.5,3.9,3.4V172H24.9z"/>
		<path class="st2" d="M266.6,47c1.3,0,2.4,0.9,2.4,1.9v121.6H26.4V48.9c0-1,1.1-1.9,2.5-1.9H266.6 M266.6,44H28.9
			c-3,0-5.5,2.2-5.5,4.9v124.6H272V48.9C272,46.2,269.6,44,266.6,44L266.6,44z"/>
	</g>
	<line class="st3" x1="112.4" y1="214.9" x2="182.2" y2="214.9"/>
	<path class="st2" d="M272,173.5v8.6c0,3-2.4,5.4-5.4,5.4H28.9c-3,0-5.5-2.4-5.5-5.4v-8.6H272z"/>
	<path class="st4" d="M166.8,187.5c0,0-0.1,0-0.1,0c-0.2,0.1-0.4,0.1-0.7,0.2c-1.4,0.3-2.6,0.8-3.6,1.6c0,0,0,0-0.1,0
		c-0.7,0.6-1.4,1.3-2,2h-27.1c-0.6-0.8-1.2-1.5-1.9-2c0,0,0,0-0.1,0c-0.9-0.8-2-1.3-3.3-1.6c-0.2-0.1-0.4-0.1-0.6-0.2
		c0,0-0.1,0-0.1,0H166.8z"/>
</g>
<line class="st5" x1="172.5" y1="128.6" x2="249.9" y2="129.5"/>
<line class="st5" x1="172.5" y1="134.5" x2="249.9" y2="135.5"/>
<line class="st5" x1="172.6" y1="140.8" x2="250" y2="141.7"/>
<line class="st5" x1="172.6" y1="147.4" x2="250" y2="148.4"/>
<line class="st5" x1="172.6" y1="154.1" x2="250" y2="155.1"/>
<line class="st5" x1="172.6" y1="161.3" x2="250" y2="162.2"/>
<g>
	<g class="st6">
		<line x1="164.7" y1="70.6" x2="125.4" y2="81"/>
		<line class="st7" x1="164.7" y1="70.6" x2="125.4" y2="81"/>
	</g>
	<g>
		<line class="st2" x1="157.7" y1="71.6" x2="118.4" y2="82"/>
		<line class="st8" x1="157.7" y1="71.6" x2="118.4" y2="82"/>
	</g>
</g>
<g>
	<g class="st6">
		<line class="st7" x1="128.8" y1="132.5" x2="101.6" y2="102.2"/>
	</g>
	<g>
		<line class="st8" x1="130.8" y1="133.5" x2="103.6" y2="103.2"/>
	</g>
</g>
<g id="large">
	<g class="st6">
		<path d="M234.1,72.1c0,24.8-20.1,44.9-44.9,44.9s-44.9-20.1-44.9-44.9s20.1-44.9,44.9-44.9c13.2,0,25.1,5.7,33.4,14.8
			C229.7,49.9,234.1,60.5,234.1,72.1z"/>
		<path d="M189.2,27.1c13.2,0,25.1,5.7,33.4,14.8c7.2,8,11.6,18.5,11.6,30.1c0,24.8-20.1,44.9-44.9,44.9s-44.9-20.1-44.9-44.9
			S164.4,27.1,189.2,27.1 M189.2,25.1c-25.9,0-46.9,21.1-46.9,46.9s21.1,46.9,46.9,46.9s46.9-21.1,46.9-46.9
			c0-11.6-4.3-22.8-12.1-31.5C215.1,30.8,202.4,25.1,189.2,25.1L189.2,25.1z"/>
	</g>
	<g>
		<path class="st9" d="M234.1,70.1c0,24.8-20.1,44.9-44.9,44.9s-44.9-20.1-44.9-44.9s20.1-44.9,44.9-44.9c13.2,0,25.1,5.7,33.4,14.8
			C229.7,47.9,234.1,58.5,234.1,70.1z"/>
		<g>
			<path class="st2" d="M189.2,25.1c13.2,0,25.1,5.7,33.4,14.8c7.2,8,11.6,18.5,11.6,30.1c0,24.8-20.1,44.9-44.9,44.9
				s-44.9-20.1-44.9-44.9S164.4,25.1,189.2,25.1 M189.2,23.1c-25.9,0-46.9,21.1-46.9,46.9s21.1,46.9,46.9,46.9s46.9-21.1,46.9-46.9
				c0-11.6-4.3-22.8-12.1-31.5C215.1,28.8,202.4,23.1,189.2,23.1L189.2,23.1z"/>
		</g>
	</g>
</g>
<g id="medium">
	<g class="st6">
		<path d="M94.8,120.9c-19.4,0-35.2-15.8-35.2-35.2c0-19.4,15.8-35.2,35.2-35.2c19.4,0,35.2,15.8,35.2,35.2
			C130,105.1,114.2,120.9,94.8,120.9z"/>
		<path d="M94.8,51c19.2,0,34.7,15.5,34.7,34.7s-15.5,34.7-34.7,34.7s-34.7-15.5-34.7-34.7S75.7,51,94.8,51 M94.8,50
			c-19.7,0-35.7,16-35.7,35.7s16,35.7,35.7,35.7s35.7-16,35.7-35.7S114.5,50,94.8,50L94.8,50z"/>
	</g>
	<g>
		<path class="st9" d="M94.8,118.9c-19.4,0-35.2-15.8-35.2-35.2c0-19.4,15.8-35.2,35.2-35.2c19.4,0,35.2,15.8,35.2,35.2
			C130,103.1,114.2,118.9,94.8,118.9z"/>
		<g>
			<path class="st2" d="M94.8,49c19.2,0,34.7,15.5,34.7,34.7s-15.5,34.7-34.7,34.7s-34.7-15.5-34.7-34.7S75.7,49,94.8,49 M94.8,48
				c-19.7,0-35.7,16-35.7,35.7s16,35.7,35.7,35.7s35.7-16,35.7-35.7S114.5,48,94.8,48L94.8,48z"/>
		</g>
	</g>
</g>
<g id="small">
	<g class="st6">
		<path d="M140.2,175.6c-15.7,0-28.5-12.8-28.5-28.5c0-15.7,12.8-28.5,28.5-28.5c15.7,0,28.5,12.8,28.5,28.5
			C168.7,162.8,155.9,175.6,140.2,175.6z"/>
		<path d="M140.2,119.1c15.5,0,28,12.5,28,28s-12.5,28-28,28s-28-12.5-28-28S124.7,119.1,140.2,119.1 M140.2,118.1
			c-16,0-29,13-29,29s13,29,29,29s29-13,29-29S156.2,118.1,140.2,118.1L140.2,118.1z"/>
	</g>
	<g>
		<path class="st9" d="M140.2,173.6c-15.7,0-28.5-12.8-28.5-28.5c0-15.7,12.8-28.5,28.5-28.5c15.7,0,28.5,12.8,28.5,28.5
			C168.7,160.8,155.9,173.6,140.2,173.6z"/>
		<g>
			<path class="st2" d="M140.2,117.1c15.5,0,28,12.5,28,28s-12.5,28-28,28s-28-12.5-28-28S124.7,117.1,140.2,117.1 M140.2,116.1
				c-16,0-29,13-29,29s13,29,29,29s29-13,29-29S156.2,116.1,140.2,116.1L140.2,116.1z"/>
		</g>
	</g>
</g>
<g>
	<path class="st10" d="M137.6,140.7c0,0,0.4,1.9,0.3,2.5s4.9,0.1,4.9,0.1s0.2-2.7,0.5-3C143.7,140.1,137.6,140.7,137.6,140.7z"/>
	<path class="st11" d="M137.5,140.4l0.2,1c0,0,2.2,1.8,5.3-0.1c0.1-0.8,0.2-1.2,0.2-1.2L137.5,140.4z"/>
	<path class="st12" d="M148.8,127.5l-2.5-1.4l-11.7-0.1l-2.4,1.4c0,0-0.9,8.3,1.9,11c2.5,2.5,4.7,3.5,6.1,3.5h0c0,0,0,0,0.1,0
		c0,0,0.1,0,0.1,0c0,0,0.1,0,0.1,0c0,0,0,0,0.1,0h0c1.4-0.1,3.5-1.4,6-3.9C149.2,135.3,148.8,127.5,148.8,127.5z"/>
	<path class="st13" d="M130.9,127.3c0,0,1.4,7.8,1.7,8.6c0.3,0.7,0.3-0.4,0.3-0.4s0.1-5.6,0.2-6.6c0.1-1,1.7-1.9,2.5-2.2
		c0.1,0,0.6-0.1,1.4-0.1c2.8,0,8.8,0.2,9.4,0.6c0.8,0.4,1.2,1.8,1.2,2.5c0,0.7,0.1,5.3,0.1,5.3l0.2,0.5c0.9-3.3,1.6-6.8,2-10.3
		c0,0-3-4.4-5.5-3.9C142,121.8,131.6,115.8,130.9,127.3z"/>
	<path class="st2" d="M137.9,143.2l2.4,18.2l2.4-18.1C141,143.5,139.4,143.5,137.9,143.2z"/>
	<path class="st14" d="M138.6,143.8l1.6,1.5c0.1,0.1,0.3,0.1,0.5,0l1.6-1.4c0.2-0.2,0.1-0.6-0.2-0.6l-3.1-0.1
		C138.5,143.2,138.3,143.6,138.6,143.8z"/>
	<path class="st13" d="M137.9,143.2l-7.7,0.1c-0.8,0-1.7,1-1.9,1.8l-4.2,18.8l5.5,0.6l2.1-8.1l0.2,12.6h9.5L137.9,143.2z"/>
	<polygon class="st15" points="137.9,143.2 135.7,147.7 137.5,150.7 137.1,152.1 139.6,155.9 	"/>
	<path class="st16" d="M124.4,163.9l-0.1,0.4c0,0,5.1,0.6,5.1,0.5c0,0,0.1-0.3,0.1-0.3L124.4,163.9z"/>
	<path class="st13" d="M142.8,143.2l7.7,0.1c0.8,0,1.7,1,1.9,1.8l4.2,18.8l-5.5,0.6l-2.1-8.1l-0.2,12.6h-9.5L142.8,143.2z"/>
	<polygon class="st15" points="142.8,143.2 145,147.7 143.2,150.7 143.7,152.1 141.1,155.9 	"/>
	<path class="st16" d="M156.4,163.9l0.1,0.4c0,0-5.1,0.6-5.1,0.5c0,0-0.1-0.3-0.1-0.3L156.4,163.9z"/>
	<circle class="st15" cx="140.2" cy="163.1" r="0.3"/>
	<circle class="st15" cx="140.2" cy="164.3" r="0.3"/>
	<path class="st17" d="M139.3,144.6c0,0-0.6,15.5-0.6,15.5l1.6,3.2c0.1,0,0.1,0,0.2,0l1.4-2.9c0,0-0.5-15.7-0.5-15.7c0,0,0,0,0,0
		L139.3,144.6C139.3,144.5,139.3,144.5,139.3,144.6z"/>
	<polygon class="st15" points="132.3,168.9 132.3,169.4 148.5,169.4 148.5,168.9 	"/>
	<path class="st18" d="M125.4,164.4l-0.2,3.1c0,0.4,0.2,0.9,0.6,1.1l2.2,1.2c0.2,0.1,0.4,0,0.4-0.2l0.1-1.9c0-1-0.1-2-0.3-3
		L125.4,164.4z"/>
	<path class="st19" d="M126.4,167.1c0,0-0.2,0.2-0.2,0.5c0,0.3,1.7,1.5,1.7,1.5c0.1,0.1,0.2,0,0.2-0.1l-0.4-1.9
		c0-0.1-0.4-0.6-0.4-0.6L126.4,167.1z"/>
	<path class="st18" d="M126.5,167l0.5-0.2l0.4,2.8c0,0.3,0.3,0.5,0.5,0.5l0,0c0.3,0,0.6-0.3,0.5-0.6l-0.4-4.7L126.5,167z"/>
	<path class="st2" d="M127.6,169.1c0,0,0,0.8,0.4,0.7c0.5,0,0.3-0.8,0.3-0.8L127.6,169.1z"/>
	<path class="st18" d="M155.4,164.4l0.1,3.1c0,0.4-0.2,0.9-0.6,1.1l-2.2,1.2c-0.2,0.1-0.4,0-0.4-0.2l-0.1-1.9c0-0.5,0-1,0.1-1.5
		c0.1-0.5,0.1-1,0.2-1.4L155.4,164.4z"/>
	<path class="st20" d="M154.2,167.1c0,0,0.2,0.2,0.2,0.5c0,0.3-1.7,1.5-1.7,1.5c-0.1,0.1-0.2,0-0.2-0.1l0.4-1.9
		c0-0.1,0.4-0.6,0.4-0.6L154.2,167.1z"/>
	<path class="st18" d="M154.1,166.8l-0.5,0l-0.4,2.8c0,0.3-0.3,0.5-0.5,0.5l0,0c-0.3,0-0.6-0.3-0.5-0.6l0.4-4.7L154.1,166.8z"/>
	<path class="st21" d="M153.1,169.1c0,0,0,0.8-0.4,0.7c-0.5,0-0.3-0.8-0.3-0.8L153.1,169.1z"/>
</g>
<g>
	<path class="st18" d="M212.8,108.5l0.4,5.4c0.1,0.8-0.3,1.5-1,1.9l-3.8,2c-0.3,0.2-0.7-0.1-0.7-0.4l-0.1-3.2c0-1.7,0.3-3.9,0.6-5.6
		H212.8z"/>
	<path class="st19" d="M210.9,113.1c0,0,0.4,0.4,0.3,0.8c-0.1,0.4-3,2.5-3,2.5c-0.2,0.1-0.4,0-0.4-0.2l0.6-3.2
		c0-0.1,0.6-1.1,0.8-1.1L210.9,113.1z"/>
	<path class="st18" d="M210.8,112.9l-0.9-0.3l-0.8,4.7c-0.1,0.4-0.5,0.8-0.9,0.8l0,0c-0.5,0-1-0.5-0.9-1l0.8-8.1L210.8,112.9z"/>
	<path class="st22" d="M208.9,116.5c0,0,0,1.3-0.7,1.3c-0.8,0-0.5-1.4-0.5-1.4L208.9,116.5z"/>
	<path class="st18" d="M170.6,108.3l-0.4,5.4c-0.1,0.8,0.3,1.5,1,1.9l3.8,2c0.3,0.2,0.7-0.1,0.7-0.4l0.1-3.2c0-1.7-0.3-3.9-0.6-5.6
		H170.6z"/>
	<path class="st19" d="M172.4,112.9c0,0-0.4,0.4-0.3,0.8c0.1,0.4,3,2.5,3,2.5c0.2,0.1,0.4,0,0.4-0.2l-0.6-3.2c0-0.1-0.6-1.1-0.8-1.1
		L172.4,112.9z"/>
	<path class="st18" d="M172.6,112.7l0.9-0.3l0.8,4.7c0.1,0.4,0.5,0.8,0.9,0.8l0,0c0.5,0,1-0.5,0.9-1l-0.8-8.1L172.6,112.7z"/>
	<path class="st22" d="M174.4,116.3c0,0,0,1.3,0.7,1.3c0.8,0,0.5-1.4,0.5-1.4L174.4,116.3z"/>
	<path class="st10" d="M186.8,57.9c0,0,0.8,3.3,0.6,4.2c0,0.2-4.5,2.5-4,3c1.8,1.7,12.6,2,16.2,0c0.5-0.3-3.9-2.8-3.9-2.8
		s0.3-4.7,0.9-5.1C197.2,56.9,186.8,57.9,186.8,57.9z"/>
	<path class="st11" d="M186.8,57.2l-0.5,1.9c0.1,0.1,2.6,2.2,5.2,1.9c1.3-0.1,3.3-0.7,5.1-2.8C198.3,56.1,186.8,57.2,186.8,57.2z"/>
	<path class="st12" d="M205.7,35.7l-4.2-2.5l-20-0.2l-4.1,2.5c0,0-0.7,14.3,3.9,18.9c4.3,4.3,7.3,5.9,9.7,6H191c0,0,0.1,0,0.1,0
		c0.1,0,0.1,0,0.2,0c0.1,0,0.1,0,0.2,0c0,0,0.1,0,0.1,0h-0.1c2.4-0.1,5.7-2.8,10-7.1C206.2,48.6,205.7,35.7,205.7,35.7z"/>
	<path class="st13" d="M189.2,27.1c0,0.5-15-3.6-16.9,11.4c-0.7,5.4-3,6.2-0.6,10.3c3.4,5.9-2,6.8,0.2,12c1,2.3,1.6,5.5-0.1,8.2
		c-1.5,2.3,15.5-6.3,15.6-6.9c0.3-1.1,0-2.1-0.3-3.2c0-0.3-1.9-1.7-4.3-3.7c-0.9-0.8-2-1.7-2.7-2.9c-3.2-4.9-0.6-9.2-1.6-7.5
		c0.9,0.3,13.6-8.1,13.1-10.9C190.8,30.3,189.2,27.1,189.2,27.1z"/>
	<path class="st13" d="M189.3,27.2c-1.4,1.4-2.6,15.2,15.2,18c-1.4,9.1-5.3,9.5-8.2,12.7c-0.5,1.6-0.5,2.5-0.5,4.3
		c4.3,2.8,10.1,5.7,16.5,7.3c0,0-3.8-4.7-0.8-10.4c3-5.6-1.5-9.4-0.5-14C214.1,31.5,197.7,20.4,189.3,27.2z"/>
	<path class="st23" d="M213.1,70.5c0-1.2-0.8-2.2-1.9-2.5l-9.2-2.4c-3.5,0.6-7,0.9-10.5,1c-3.5,0-7-0.4-10.5-1l-9.2,2.4
		c-1.1,0.3-1.9,1.3-1.9,2.5c-0.7,11.6-0.7,23.8,0,36.6h5.9l0.5-25c0-0.2,0.3-0.3,0.4,0c1.3,8.4,1.8,16.5,1.6,24.4
		c0,0.4,0.3,0.7,0.6,0.7h12.6h12.8c0.3,0,0.5-0.2,0.5-0.5c0-7.6,0.6-15.6,1.6-24c0-0.2,0.4-0.2,0.4,0l0.6,24.5h5.7
		C213.7,93.6,213.8,81.1,213.1,70.5z"/>
	<path class="st24" d="M191.6,65.9c0,0-8.5-2-9.1-3.2c-0.7-1.1-2.1,3-2.1,3s9.1,3.3,9.4,2.9S191.6,65.9,191.6,65.9z"/>
	<path class="st25" d="M184.6,63.9l0.9-0.6c0,0-2.9-1.3-3.3-0.8C181.8,63.1,184.6,63.9,184.6,63.9z"/>
	<path class="st24" d="M191.8,65.9c0,0,8.1-2,8.7-3.1s2.1,3,2.1,3s-9.1,3.3-9.4,2.9C193,68.3,191.8,65.9,191.8,65.9z"/>
	<path class="st25" d="M198.4,64l-0.9-0.6c0,0,2.9-1.3,3.3-0.8C201.1,63.2,198.4,64,198.4,64z"/>
	<path class="st10" d="M191,65.9"/>
	<path class="st26" d="M177.8,45.2"/>
	<path class="st2" d="M206.6,106.5v1.6c0,0.2,0.2,0.4,0.4,0.4h6.3c0.2,0,0.4-0.2,0.4-0.4v-1.6c0-0.2-0.2-0.4-0.4-0.4H207
		C206.8,106.1,206.6,106.3,206.6,106.5z"/>
	<path class="st2" d="M169.3,106.3v1.6c0,0.2,0.2,0.4,0.4,0.4h6.3c0.2,0,0.4-0.2,0.4-0.4v-1.6c0-0.2-0.2-0.4-0.4-0.4h-6.3
		C169.5,105.9,169.3,106.1,169.3,106.3z"/>
</g>
<g>
	<path class="st10" d="M92.2,76.7c0,0,0.5,2.4,0.4,3c-0.1,0.7,6.1,0.1,6.1,0.1s0.2-3.4,0.6-3.7S92.2,76.7,92.2,76.7z"/>
	<path class="st11" d="M92.2,76.3l0.2,1.3c0,0,2.8,2.3,6.5-0.1c0.2-1,0.3-1.5,0.3-1.5L92.2,76.3z"/>
	<path class="st12" d="M106.1,60.4l-3.1-1.8l-14.5-0.2l-3,1.8c0,0-1.1,10.3,2.3,13.6c3.1,3.1,5.9,4.3,7.6,4.4h-0.1c0,0,0,0,0.1,0
		c0.1,0,0.1,0,0.2,0c0.1,0,0.1,0,0.2,0c0,0,0,0,0.1,0h-0.1c1.7-0.1,4.3-1.7,7.5-4.8C106.6,70.1,106.1,60.4,106.1,60.4z"/>
	<path class="st13" d="M106.9,60.2c0,0-1.3,9.8-1.7,10.7c-0.4,0.9-0.4-0.5-0.4-0.5s-0.1-7.1-0.2-8.4c-0.1-1.2-2.2-2.4-3.2-2.8
		c-0.1-0.1-0.8-0.1-1.8-0.1c-3.5,0-11.2,0.3-11.9,0.7c-1,0.5-1.6,2.3-1.6,3.1c0,0.9-0.2,6.7-0.2,6.7l-0.2,0.6
		c-1.2-4.2-1.6-9.7-1.6-11.4c0-1.8,4.2-7.6,7-6.1C94.8,54.6,104.7,48.2,106.9,60.2z"/>
	<path class="st27" d="M92.7,79.8l3,22.6l3-22.5C96.5,80.2,94.5,80.2,92.7,79.8z"/>
	<path class="st14" d="M93.5,80.6l1.9,1.9c0.2,0.2,0.4,0.2,0.6,0l1.9-1.8c0.3-0.3,0.1-0.7-0.3-0.7l-3.8-0.1
		C93.4,79.8,93.2,80.3,93.5,80.6z"/>
	<path class="st2" d="M92.7,79.8l-9.5,0.1c-1,0-2.1,1.2-2.3,2.2l-5.2,23.3l6.8,0.7L85,96.1l0.3,15.6H97L92.7,79.8z"/>
	<polygon class="st15" points="92.7,79.8 89.9,85.4 92.2,89.1 91.6,90.8 94.8,95.6 	"/>
	<path class="st28" d="M75.9,105.5l-0.1,0.5c0,0,6.3,0.7,6.3,0.6s0.1-0.4,0.1-0.4L75.9,105.5z"/>
	<path class="st2" d="M98.7,79.8l9.5,0.1c1,0,2.1,1.2,2.3,2.2l5.2,23.3l-6.8,0.7l-2.6-10.1l-0.3,15.6H94.4L98.7,79.8z"/>
	<polygon class="st15" points="98.7,79.8 101.5,85.4 99.2,89.1 99.8,90.8 96.6,95.6 	"/>
	<path class="st28" d="M115.5,105.5l0.1,0.5c0,0-6.3,0.7-6.3,0.6s-0.1-0.4-0.1-0.4L115.5,105.5z"/>
	<circle class="st15" cx="95.5" cy="104.4" r="0.4"/>
	<circle class="st15" cx="95.5" cy="106" r="0.4"/>
	<path class="st17" d="M94.4,81.5c0,0-0.7,19.2-0.7,19.2l2,3.9c0.2,0,0.1,0,0.3,0l1.7-3.6c0,0-0.6-19.5-0.6-19.5c0,0,0,0,0,0
		L94.4,81.5C94.4,81.5,94.4,81.5,94.4,81.5z"/>
	<polygon class="st15" points="85.7,111.7 85.8,112.4 105.8,112.4 105.8,111.7 	"/>
	<path class="st18" d="M77.1,106.1l-0.3,3.9c0,0.6,0.2,1.1,0.7,1.3l2.7,1.5c0.2,0.1,0.5,0,0.5-0.3l0.1-2.3c0-1.2-0.2-2.5-0.4-3.7
		L77.1,106.1z"/>
	<path class="st19" d="M78.4,109.5c0,0-0.3,0.3-0.2,0.6s2.1,1.8,2.1,1.8c0.1,0.1,0.3,0,0.3-0.2l-0.5-2.3c0-0.1-0.5-0.8-0.6-0.8
		L78.4,109.5z"/>
	<path class="st18" d="M78.5,109.3l0.6-0.2l0.6,3.4c0.1,0.3,0.3,0.6,0.7,0.6h0c0.4,0,0.7-0.3,0.7-0.7l-0.6-5.8L78.5,109.3z"/>
	<path class="st2" d="M79.9,112c0,0,0,0.9,0.5,0.9c0.6,0,0.4-1,0.4-1L79.9,112z"/>
	<path class="st18" d="M114.4,106.1l0.1,3.9c0,0.6-0.2,1.1-0.7,1.3l-2.7,1.5c-0.2,0.1-0.5,0-0.5-0.3l-0.1-2.3c0-0.6,0-1.3,0.1-1.9
		c0.1-0.6,0.2-1.2,0.3-1.8L114.4,106.1z"/>
	<path class="st20" d="M112.9,109.5c0,0,0.3,0.3,0.2,0.6s-2.1,1.8-2.1,1.8c-0.1,0.1-0.3,0-0.3-0.2l0.5-2.3c0-0.1,0.5-0.8,0.6-0.8
		L112.9,109.5z"/>
	<path class="st18" d="M112.8,109.1l-0.6,0l-0.6,3.4c-0.1,0.3-0.3,0.6-0.7,0.6l0,0c-0.4,0-0.7-0.3-0.7-0.7l0.6-5.8L112.8,109.1z"/>
	<path class="st21" d="M111.4,112c0,0,0,0.9-0.5,0.9c-0.6,0-0.4-1-0.4-1L111.4,112z"/>
	<g>
		<path d="M91.6,63.2c1.8,0,3.2,1.4,3.2,3.2s-1.4,3.2-3.2,3.2s-3.2-1.4-3.2-3.2S89.8,63.2,91.6,63.2 M91.6,63
			c-1.9,0-3.5,1.6-3.5,3.5s1.6,3.5,3.5,3.5c1.9,0,3.5-1.6,3.5-3.5S93.5,63,91.6,63L91.6,63z"/>
	</g>
	<g>
		<path d="M100.1,63.4c1.8,0,3.2,1.4,3.2,3.2s-1.4,3.2-3.2,3.2s-3.2-1.4-3.2-3.2S98.3,63.4,100.1,63.4 M100.1,63.1
			c-1.9,0-3.5,1.6-3.5,3.5c0,1.9,1.6,3.5,3.5,3.5c1.9,0,3.5-1.6,3.5-3.5C103.5,64.7,102,63.1,100.1,63.1L100.1,63.1z"/>
	</g>
	<line class="st29" x1="94.9" y1="66.5" x2="96.7" y2="66.6"/>
	<line class="st30" x1="103.6" y1="66.6" x2="104.8" y2="66.5"/>
	<line class="st30" x1="88.1" y1="66.5" x2="86.1" y2="66.6"/>
</g>
</svg>