<?xml version="1.0" encoding="utf-8"?>
<!-- Generator: Adobe Illustrator 22.1.0, SVG Export Plug-In . SVG Version: 6.00 Build 0)  -->
<svg version="1.1" id="Layer_1" xmlns="http://www.w3.org/2000/svg" xmlns:xlink="http://www.w3.org/1999/xlink" x="0px" y="0px"
	 viewBox="0 0 224 18" style="enable-background:new 0 0 224 18;" xml:space="preserve">
<style type="text/css">
	.st0{fill:#FA3117;}
</style>
<g>
	<path class="st0" d="M1.6,5.3c18.5-1,36.9-1.8,55.3-2.5c18.4-0.6,36.9-1.1,55.4-1.3c18.5-0.2,36.9-0.1,55.4,0.6
		c9.2,0.4,18.5,0.9,27.6,1.9c4.6,0.5,9.2,1.1,13.7,2c2.3,0.5,4.5,1,6.7,1.7c2.2,0.7,4.4,1.6,6.2,3c-1.9-1.3-4.1-2-6.3-2.7
		c-2.2-0.6-4.5-1-6.7-1.4c-4.5-0.7-9.1-1.1-13.7-1.3c-9.2-0.5-18.4-0.6-27.6-0.6c-18.4,0.2-36.8,1-55.1,2.1
		c-18.4,1.1-36.7,2.5-55.1,4c-18.3,1.6-36.7,3.3-54.9,5.2L1.6,5.3z"/>
</g>
</svg>
