<?xml version="1.0" encoding="utf-8"?>
<!-- Generator: Adobe Illustrator 22.1.0, SVG Export Plug-In . SVG Version: 6.00 Build 0)  -->
<svg version="1.1" id="Layer_17" xmlns="http://www.w3.org/2000/svg" xmlns:xlink="http://www.w3.org/1999/xlink" x="0px" y="0px"
	 viewBox="0 0 294 250" style="enable-background:new 0 0 294 250;" xml:space="preserve">
<style type="text/css">
	.st0{fill:none;stroke:#111111;stroke-width:3;stroke-miterlimit:10;stroke-dasharray:20.0863,1.0043;}
	.st1{fill:#FF1800;}
	.st2{fill:#A80C00;}
	.st3{fill:#262626;}
	.st4{fill:#191919;}
	.st5{fill:#F9AC00;}
	.st6{fill:#353535;}
	.st7{fill:#212121;}
	.st8{fill:#141414;}
	.st9{fill:#666665;}
	.st10{fill:#D18600;}
	.st11{fill:#0C0C0C;}
	.st12{fill:#2D2D2D;}
	.st13{fill:none;stroke:#141414;stroke-miterlimit:10;}
	.st14{fill:none;stroke:#000000;stroke-width:0.5;stroke-miterlimit:10;}
	.st15{opacity:0.3;}
	.st16{fill:#E2E2E2;}
	.st17{opacity:0.2;}
	.st18{fill:#9B0700;}
	.st19{fill:none;stroke:#9B0700;stroke-width:1.5;stroke-miterlimit:10;}
	.st20{fill:none;stroke:#9B0700;stroke-width:0.5;stroke-miterlimit:10;}
	.st21{fill:#111111;}

	#tire1_1_{
	animation: rot 4s cubic-bezier(.46,.47,.59,.6) infinite;
	transform-origin: 42.3px 214.6px;
	}

	@keyframes rot{
	0%{
	transform: rotateZ(0deg);
	}
	100%{
	transform: rotateZ(360deg);
	}
	}


	#tire2_3_{
	animation: rot2 4s cubic-bezier(.46,.47,.59,.6) infinite;
	transform-origin: 120px 214.6px;
	}

	@keyframes rot2{
	0%{
	transform: rotateZ(0deg);
	}
	100%{
	transform: rotateZ(360deg);
	}
	}


	#machiney{
	animation: trans 15s cubic-bezier(.46,.47,.59,.6) infinite;
	}

	@keyframes trans{
	0%{
	transform: translateX(260px);
	}
	100%{
	transform: translateX(-260px);
	}
	}

	#machine_4_{
	animation: off 30s cubic-bezier(.45,.46,.62,.64) infinite;
	stroke-dasharray: 200;
	stroke-dashoffset: 0;
	}

	@keyframes off{
	0%{
	stroke-dashoffset: 200;
	}
	100%{
	stroke-dashoffset: 0;
	}
	}




</style>
<g id="machiney">
<g id="machine_4_">
	<path class="st0" d="M264.1,111.8H37.4c-2.8,0-5-2.3-5-5v0c0-2.8,2.3-5,5-5h226.8c2.8,0,5,2.3,5,5v0
		C269.2,109.6,266.9,111.8,264.1,111.8z"/>
</g>
<g id="kahons_1_">
	<rect id="kahon1_1_" x="46.6" y="75.4" class="st21" width="23.1" height="23.1"/>
	<rect id="kahon2_1_" x="81.3" y="75.4" class="st21" width="28.8" height="23.1"/>
	<rect id="kahon3_1_" x="122.7" y="57.7" class="st21" width="28.8" height="40.8"/>
	<rect id="kahon4_1_" x="161" y="78.1" class="st21" width="28.8" height="20.4"/>
	<rect id="kahon5_1_" x="203.1" y="57.7" class="st21" width="28.8" height="40.8"/>
</g>
</g>
<g id="vehicle_1_">
	<g>
		<path class="st1" d="M75,119.2c5.6,0,10.7,3.3,13,8.3l33.4,74.4h-84v-26.4l2.5-46c0.3-5.8,5.2-10.4,11.1-10.4H75 M75,115.2H50.9
			c-8,0-14.6,6.2-15,14.1l-2.5,46.1v30.5h94.2l-36-80C88.7,119.4,82.2,115.2,75,115.2L75,115.2z"/>
	</g>
	<g>
		<path class="st2" d="M74.6,122.7c4.7,0,8.9,2.8,10.8,7.1l30.2,68.6H41.1v-23.7l2.3-43.4c0.3-4.8,4.2-8.6,8.9-8.6H74.6 M74.6,117.7
			H52.4c-7.4,0-13.5,5.9-13.9,13.4l-2.3,43.6v28.8h87.2L90,127.8C87.3,121.6,81.3,117.7,74.6,117.7L74.6,117.7z"/>
	</g>
	<path class="st3" d="M47.9,175.4h7.8c5.2,0,9.8,3.2,11.4,8l5.5,16.4l-24.6-1.2V175.4z"/>
	<polygon class="st4" points="56.4,213.2 56.4,217.2 73.9,217.2 75.2,215.2 105.4,215 105.4,213.2 	"/>
	<path class="st5" d="M24,210.2v-27.8c0-3.2,2.6-5.8,5.8-5.8h18.2c2.8,0,5.6,1.2,7.4,3.4l20.1,23.1c1.5,1.8,3.8,2.8,6.1,2.8h15
		c3.4,0,6.6-1.4,8.8-3.9c3.9-4.5,9.1-7.1,14.8-7.3c5.4-0.1,9.6,2.1,12.7,6.8c0.4,0.6,0.3,1.4-0.1,1.9l0,0c-0.6,0.7-1.7,0.8-2.3,0.2
		c-3-2.5-6.4-4-10.5-3.8c-7.8,0.7-12.3,5.5-14.4,13.5h-48c-2.5-8-7.4-13.4-15.5-13.1c-8.4,0.7-12.6,6-14.2,13.1l-1.2-0.2
		C25.1,212.8,24,211.6,24,210.2z"/>
	<g>
		<rect x="135.4" y="110.5" class="st6" width="12.2" height="103"/>
		<path class="st7" d="M147.3,110.7v102.5h-11.7V110.7H147.3 M147.8,110.2h-0.5h-11.7h-0.5v0.5v102.5v0.5h0.5h11.7h0.5v-0.5V110.7
			V110.2L147.8,110.2z"/>
	</g>
	<path class="st8" d="M130.3,203.6l10.5-0.1c2.2,0,4,1.8,4,4l0,0c0,2.2-1.8,4-4,4h-10.5V203.6z"/>
	<g>
		<circle class="st9" cx="140.3" cy="207.4" r="2.5"/>
	</g>
	<path class="st10" d="M132.7,203.4C132.7,203.4,132.8,203.3,132.7,203.4L132.7,203.4c-0.6,0.7-1.8,1-2.5,0.4c-3-2.5-6.3-4.2-10.4-4
		c-7.7,0.7-12.2,5.4-14.3,13.2c-0.1,0.2-0.2,0.3-0.4,0.3H57.5c-0.2,0-0.4-0.1-0.4-0.3c-2.5-7.9-7.2-13-15.2-12.8
		c-8.3,0.6-12.4,5.8-14.1,12.7c-0.1,0.2-0.3,0.4-0.5,0.3l-0.4-0.1c-1.6-0.3-2.9-1.7-2.9-3.3v-0.2c0-0.4,0.5-0.6,0.8-0.3
		c0.4,0.5,1,0.8,1.7,0.9l0.3,0.2c1.6-7.1,6.7-12,15.2-12.6c8-0.3,13.8,4.5,16.4,12.3c0.1,0.2,0.2,0.3,0.4,0.3h44.8
		c0.2,0,0.4-0.1,0.4-0.3c2.2-7.7,8.2-12.5,15.8-13.2c4.6-0.2,8.4,1.6,11.6,4.8c0.1,0.1,0.2,0.2,0.3,0.4L132.7,203.4z"/>
	<g>
		<polygon class="st11" points="27.4,178.9 25.8,185.3 27.6,185.3 29.1,178.9 		"/>
		<polygon class="st11" points="30.5,178.9 28.9,185.3 30.7,185.3 32.2,178.9 		"/>
		<polygon class="st11" points="33.6,178.9 32.1,185.3 33.8,185.3 35.3,178.9 		"/>
		<polygon class="st11" points="36.7,178.9 35.2,185.3 36.9,185.3 38.5,178.9 		"/>
		<polygon class="st11" points="39.9,178.9 38.3,185.3 40.2,185.3 41.6,178.9 		"/>
	</g>
	<path class="st3" d="M41.1,153L40,176.6h8v-23.3c0-1.8-1.4-3.3-3.2-3.4h0C42.8,149.7,41.2,151.2,41.1,153z"/>
	<g>
		<polygon class="st6" points="147.4,221.4 147.4,163.6 154.4,163.6 154.4,218.9 223.7,218.9 215.2,221.3 154.1,221.4 		"/>
		<path class="st7" d="M154.1,163.9v55.3l67.7,0l-6.7,1.9l-61,0.1h-6.5v-57.3H154.1 M154.6,163.4h-0.5h-6.5h-0.5v0.5v57.3v0.5h0.5
			h6.5l61-0.1l0.1,0l0.1,0l6.7-1.9l3.5-1l-3.6,0l-67.2,0v-54.8V163.4L154.6,163.4z"/>
	</g>
	<g>
		<polygon class="st5" points="135.6,116.9 135.6,120.2 147.3,125.1 147.3,121.8 		"/>
		<polygon class="st5" points="135.6,124.7 135.6,128 147.3,132.9 147.3,129.6 		"/>
		<polygon class="st5" points="135.6,132.5 135.6,135.8 147.3,140.7 147.3,137.5 		"/>
		<polygon class="st5" points="135.6,140.3 135.6,143.7 147.3,148.5 147.3,145.3 		"/>
		<polygon class="st5" points="135.6,148.1 135.6,151.5 147.3,156.4 147.3,153.1 		"/>
		<polygon class="st5" points="135.6,156 135.6,159.3 147.3,164.2 147.3,160.9 		"/>
		<polygon class="st5" points="135.6,163.8 135.6,167.1 147.3,172 147.3,168.7 		"/>
		<polygon class="st5" points="135.6,171.6 135.6,174.9 147.3,179.8 147.3,176.6 		"/>
		<polygon class="st5" points="135.6,179.4 135.6,182.7 147.3,187.6 147.3,184.4 		"/>
		<polygon class="st5" points="135.6,187.2 135.6,190.6 147.3,195.5 147.3,192.2 		"/>
		<polygon class="st5" points="135.6,195.1 135.6,198.4 147.3,203.3 147.3,200 		"/>
	</g>
	<g>
		<rect x="129.5" y="106.1" class="st6" width="18" height="4.9"/>
		<path class="st7" d="M147.3,106.3v4.4h-17.5v-4.4H147.3 M147.8,105.8h-0.5h-17.5h-0.5v0.5v4.4v0.5h0.5h17.5h0.5v-0.5v-4.4V105.8
			L147.8,105.8z"/>
	</g>
	<g id="wheel1_2_">
		<path class="st12" d="M56.9,214.2c0,8-6.4,14.5-14.3,14.7c-0.1,0-0.3,0-0.4,0c-8.1,0-14.7-6.6-14.7-14.7c0-3.9,1.5-7.5,4.1-10.2
			c0,0,0,0,0,0h0c2.7-2.8,6.4-4.5,10.6-4.5C50.3,199.4,56.9,206,56.9,214.2z"/>
		<circle class="st13" cx="42.2" cy="214.8" r="8.9"/>
		<path id="tire1_1_" class="st8" d="M51,213.7c-0.4,0.3-1,0.5-1.5,0.5c-1.5,0-2.7-1.2-2.7-2.7c0-1.3,0.9-2.3,2.1-2.6
			c-1.2-1.4-2.7-2.4-4.5-2.8c0.3,0.4,0.4,0.9,0.4,1.4c0,1.5-1.2,2.7-2.7,2.7s-2.7-1.2-2.7-2.7c0-0.5,0.2-1,0.4-1.4
			c-1.6,0.4-3,1.2-4.1,2.4c1.4,0.1,2.4,1.3,2.4,2.7c0,1.5-1.2,2.7-2.7,2.7c-0.9,0-1.6-0.4-2.1-1.1c-0.2,0.6-0.2,1.3-0.2,2
			c0,0.8,0.1,1.6,0.3,2.3c0.4-0.3,1-0.5,1.5-0.5c1.5,0,2.7,1.2,2.7,2.7c0,1-0.5,1.9-1.3,2.3c1,0.8,2.2,1.5,3.5,1.8
			c-0.2-0.4-0.3-0.8-0.3-1.3c0-1.5,1.2-2.7,2.7-2.7s2.7,1.2,2.7,2.7c0,0.5-0.1,0.9-0.3,1.3c1.2-0.3,2.2-0.9,3.1-1.6
			c-0.8-0.5-1.4-1.3-1.4-2.3c0-1.5,1.2-2.7,2.7-2.7c0.7,0,1.3,0.2,1.7,0.6c0.2-0.8,0.4-1.7,0.4-2.6C51.1,214.4,51.1,214,51,213.7z
			 M42.2,217.1c-1.2,0-2.1-0.9-2.1-2.1c0-1.2,0.9-2.1,2.1-2.1c1.2,0,2.1,0.9,2.1,2.1C44.3,216.2,43.3,217.1,42.2,217.1z"/>
		<circle class="st14" cx="42.2" cy="214.8" r="9.6"/>
		<path class="st15" d="M56.5,217.5c-0.8-8.7-6.7-15-14.3-15.5c-4.3-0.2-7.7,1.4-10.4,4.7l0,0c-2.5,2.9-3.8,6.4-3.9,10.8
			c0-0.3-0.2-1.1-0.3-1.4c-0.4-4.6,0.6-8.5,3.4-11.6v0c2.7-3.3,6.9-5,11.2-5.1c2.4-0.1,5.2,0.7,7.8,2.2c2.4,1.4,4.3,3.8,5.6,6.5
			C57.7,212.3,56.7,217.3,56.5,217.5z"/>
	</g>
	<g id="wheel2_2_">
		<path class="st12" d="M134.8,214.2c0,8-6.4,14.5-14.3,14.7c-0.1,0-0.3,0-0.4,0c-8.1,0-14.7-6.6-14.7-14.7c0-3.9,1.5-7.5,4.1-10.2
			c0,0,0,0,0,0h0c2.7-2.8,6.4-4.5,10.6-4.5C128.2,199.4,134.8,206,134.8,214.2z"/>
		<circle class="st13" cx="120.1" cy="214.8" r="8.9"/>
		<path id="tire2_3_" class="st8" d="M129,213.7c-0.4,0.3-1,0.5-1.5,0.5c-1.5,0-2.7-1.2-2.7-2.7c0-1.3,0.9-2.3,2.1-2.6
			c-1.2-1.4-2.7-2.4-4.5-2.8c0.3,0.4,0.4,0.9,0.4,1.4c0,1.5-1.2,2.7-2.7,2.7s-2.7-1.2-2.7-2.7c0-0.5,0.2-1,0.4-1.4
			c-1.6,0.4-3,1.2-4.1,2.4c1.4,0.1,2.4,1.3,2.4,2.7c0,1.5-1.2,2.7-2.7,2.7c-0.9,0-1.6-0.4-2.1-1.1c-0.2,0.6-0.2,1.3-0.2,2
			c0,0.8,0.1,1.6,0.3,2.3c0.4-0.3,1-0.5,1.5-0.5c1.5,0,2.7,1.2,2.7,2.7c0,1-0.5,1.9-1.3,2.3c1,0.8,2.2,1.5,3.5,1.8
			c-0.2-0.4-0.3-0.8-0.3-1.3c0-1.5,1.2-2.7,2.7-2.7s2.7,1.2,2.7,2.7c0,0.5-0.1,0.9-0.3,1.3c1.2-0.3,2.2-0.9,3.1-1.6
			c-0.8-0.5-1.4-1.3-1.4-2.3c0-1.5,1.2-2.7,2.7-2.7c0.7,0,1.3,0.2,1.7,0.6c0.2-0.8,0.4-1.7,0.4-2.6C129,214.4,129,214,129,213.7z
			 M120.1,217.1c-1.2,0-2.1-0.9-2.1-2.1c0-1.2,0.9-2.1,2.1-2.1s2.1,0.9,2.1,2.1C122.2,216.2,121.3,217.1,120.1,217.1z"/>
		<circle class="st14" cx="120.1" cy="214.8" r="9.6"/>
		<path class="st15" d="M134.4,217.5c-0.8-8.7-6.7-15-14.3-15.5c-4.3-0.2-7.7,1.4-10.4,4.7l0,0c-2.5,2.9-3.8,6.4-3.9,10.8
			c0-0.3-0.2-1.1-0.3-1.4c-0.4-4.6,0.6-8.5,3.4-11.6v0c2.7-3.3,6.9-5,11.2-5.1c2.4-0.1,5.2,0.7,7.8,2.2c2.4,1.4,4.3,3.8,5.6,6.5
			C135.6,212.3,134.6,217.3,134.4,217.5z"/>
	</g>
	<g id="double-box_1_">
		<rect x="158.7" y="158.2" class="st1" width="33.2" height="58.9"/>
		<rect x="171.6" y="158.2" class="st16" width="7.2" height="28.9"/>
		<rect x="158.7" y="158.2" class="st17" width="33.2" height="6.7"/>
		<rect x="193.4" y="158.2" class="st1" width="33.2" height="58.9"/>
		<rect x="206.3" y="158.2" class="st16" width="7.3" height="28.9"/>
		<rect x="193.4" y="158.2" class="st17" width="33.2" height="6.7"/>
		<rect x="191.9" y="158.2" class="st18" width="1.5" height="58.9"/>
		<g>
			<g>
				<g>
					<line class="st19" x1="218.8" y1="213.3" x2="218.8" y2="206"/>
					<g>
						<polygon class="st18" points="220.3,206.4 218.8,203.8 217.3,206.4 						"/>
					</g>
				</g>
			</g>
			<g>
				<g>
					<line class="st19" x1="222.8" y1="213.3" x2="222.8" y2="206"/>
					<g>
						<polygon class="st18" points="224.3,206.4 222.8,203.8 221.3,206.4 						"/>
					</g>
				</g>
			</g>
			<path class="st20" d="M224.3,215.9H217c-0.7,0-1.4-0.6-1.4-1.4v-10.8c0-0.7,0.6-1.4,1.4-1.4h7.3c0.7,0,1.4,0.6,1.4,1.4v10.8
				C225.6,215.3,225,215.9,224.3,215.9z"/>
			<line class="st20" x1="216.9" y1="214.4" x2="224.3" y2="214.5"/>
		</g>
		<g>
			<path class="st20" d="M212.2,215.9H205c-0.7,0-1.4-0.6-1.4-1.4v-10.8c0-0.7,0.6-1.4,1.4-1.4h7.3c0.7,0,1.4,0.6,1.4,1.4v10.8
				C213.6,215.3,213,215.9,212.2,215.9z"/>
			<path class="st18" d="M211.8,204.9c0,0,0,4.2-3.2,4.1c-3.2-0.1-3.2-4.1-3.2-4.1h4.2l0.2,0.5l-0.3,0.5l0.7,1.2L210,206l0.4-0.4
				l-0.2-0.6H211.8z"/>
			<g>
				<polygon class="st18" points="208.8,208.7 208.6,213.4 208.3,208.7 				"/>
			</g>
			<path class="st18" d="M210.7,213.4h-4.2c0,0,0.9-0.6,2.1-0.6S210.7,213.4,210.7,213.4z"/>
		</g>
	</g>
</g>
</svg>